<svg xmlns="http://www.w3.org/2000/svg" width="145" height="35" viewBox="0 0 145 35">
    <g fill="none">
        <g>
            <path fill="currentColor" d="M5.091 32.4V19.023h6.573v-4.628H5.091V4.629h8.378V0H0v32.4h5.091zm15.923 0V19.023h6.572v-4.628h-6.572V4.629h8.377V0H15.922v32.4h5.092z" transform="translate(78.994)"/>
            <path fill="currentColor" d="M39.898 32.4c5.092 0 7.591-2.823 7.591-8.007V8.007C47.49 2.823 44.99 0 39.9 0h-8.054v32.4h8.053zm-.092-4.629h-2.87V4.63h2.87c1.62 0 2.592.833 2.592 3.147v16.848c0 2.314-.972 3.147-2.592 3.147zM55.82 32.4V20.227h2.406c5.092 0 7.591-2.824 7.591-8.008V8.007c0-5.184-2.5-8.007-7.59-8.007h-7.499v32.4h5.092zm2.406-16.802h-2.406V4.628h2.406c1.62 0 2.5.741 2.5 3.055v4.86c0 2.315-.88 3.055-2.5 3.055z" transform="translate(78.994)"/>
        </g>
        <path fill="currentColor" d="M52.842 2.863c1.177 0 2.319.383 3.288 1.045.622.418 1.176.975 1.626 1.637l4.083 5.746 5.018 7.174-9.482 13.581c-.034.07-.069.14-.138.21-1.211 1.706-3.01 2.715-4.914 2.715h-6.99l.623-.87 10.866-15.636-5.191-7.383-5.71-8.149-.07-.07h6.991zM21.005 2.83l-.069.07-5.71 8.148-5.19 7.418 10.9 15.601.588.87h-6.99c-1.903 0-3.703-.974-4.914-2.716-.034-.07-.069-.139-.138-.209L0 18.465l5.018-7.174L9.067 5.51c.484-.662 1.038-1.219 1.626-1.637 1.004-.696 2.11-1.044 3.287-1.044h7.025zM34.813 14.18v3.134h3.599v-3.134l.158.006c1.415.094 2.54 1.45 2.54 3.128h3.67c0 1.707-1.212 3.135-2.735 3.135h-.969v3.134l-.158-.005c-1.415-.095-2.54-1.45-2.54-3.13h-3.6v3.135H32.08V20.45h-3.564l-.005.185c-.082 1.654-1.26 2.949-2.695 2.949V20.45h-3.668l.005-.185c.082-1.654 1.26-2.95 2.694-2.95h.97l.004-.185c.082-1.653 1.26-2.949 2.695-2.949v3.134h3.599v-3.134h2.699z"/>
    </g>
</svg>
