<svg xmlns="http://www.w3.org/2000/svg" fill="currentColor" viewBox="0 0 24 24" width="100%" height="100%" stroke="currentColor" class="AssetIcon_asset__g_ZK4" role="img" aria-label="Gambly" focusable="false"><path fill="currentColor" fill-rule="evenodd" stroke="#000" stroke-width="0.025" d="M22.5 17.697c0 1.056-.898 1.898-1.97 1.847l-6.587-.32-5.831 3.503c-1.252.751-2.857-.136-2.857-1.58v-2.62l-1.973-.1c-.998-.05-1.782-.861-1.782-1.846v-11.4c0-.924.693-1.707 1.623-1.832l17.243-2.331c1.128-.153 2.134.71 2.134 1.831zm-4.436-9.369h2.718V2.85a.16.16 0 0 0-.182-.155L3.357 5.024a.16.16 0 0 0-.1.053.16.16 0 0 0-.038.104v11.4c0 .04.015.08.043.109q.045.044.108.048l3.452.175a.156.156 0 0 1 .152.157v4.078a.16.16 0 0 0 .243.134l6.24-3.747a.16.16 0 0 1 .092-.023l7.065.342a.16.16 0 0 0 .118-.043.16.16 0 0 0 .05-.114V9.789H13.67a.16.16 0 0 0-.113.046.16.16 0 0 0-.047.112v2.518c0 .041.017.081.047.11q.047.046.113.047h4.074a.16.16 0 0 1 .113.046c.03.03.047.07.047.111v1.942a.16.16 0 0 1-.104.148.2.2 0 0 1-.064.01l-4.93-.24a.16.16 0 0 0-.091.024l-2.62 1.573a.16.16 0 0 1-.244-.134v-1.724c0-.04-.015-.079-.044-.108a.16.16 0 0 0-.107-.049l-3.452-.174a.16.16 0 0 1-.108-.049.16.16 0 0 1-.044-.108V7.65c0-.079.059-.145.138-.156l11.488-1.553a.16.16 0 0 1 .182.156V8.17c0 .042.017.082.047.111q.047.045.113.046Z" clip-rule="evenodd"></path></svg>