<svg width="47" height="35" viewBox="0 0 47 35" fill="none" xmlns="http://www.w3.org/2000/svg"><g clip-path="url(#a)"><path d="M40.592.838H5.552A5.551 5.551 0 0 0 0 6.389v22.222a5.551 5.551 0 0 0 5.551 5.551h35.04a5.551 5.551 0 0 0 5.552-5.55V6.388A5.551 5.551 0 0 0 40.592.838Z" fill="currentColor"/><path d="M40.59 4.858H5.55A1.53 1.53 0 0 0 4.02 6.39v22.222c0 .845.685 1.53 1.53 1.53h35.04a1.53 1.53 0 0 0 1.531-1.53V6.389a1.53 1.53 0 0 0-1.53-1.53Z" fill="currentColor"/><path d="M40.59 4.858H5.55A1.53 1.53 0 0 0 4.02 6.39v22.222c0 .845.685 1.53 1.53 1.53h35.04a1.53 1.53 0 0 0 1.531-1.53V6.389a1.53 1.53 0 0 0-1.53-1.53Z" fill="currentColor"/><path d="M23.55 4.858h-18c-.84 0-1.53.69-1.53 1.531v22.239c0 .84.69 1.53 1.53 1.53h18.017v-25.3h-.017Z" fill="currentColor"/><path d="M10.161 26.189v-2.473c0-.236.185-.404.404-.404h.774a.345.345 0 0 0 .353-.353V12.395a.345.345 0 0 0-.353-.354h-.387a.345.345 0 0 0-.353.354v1.043a.399.399 0 0 1-.404.403H7.722a.398.398 0 0 1-.404-.403v-4.29c0-.235.185-.404.404-.404h11.254c.236 0 .404.185.404.404v4.29a.399.399 0 0 1-.404.403h-2.473a.398.398 0 0 1-.404-.403v-1.043a.345.345 0 0 0-.353-.354h-.387a.345.345 0 0 0-.353.354v10.564c0 .202.151.353.353.353h.774c.236 0 .404.185.404.404v2.473a.398.398 0 0 1-.404.404H10.6a.398.398 0 0 1-.404-.404h-.034Z" fill="currentColor"/><path d="M27.875 26.189v-2.473c0-.236.185-.404.404-.404h.773a.345.345 0 0 0 .354-.353V12.395a.345.345 0 0 0-.354-.354h-.773a.399.399 0 0 1-.404-.403V9.165c0-.236.185-.404.404-.404h10.026c.235 0 .403.185.403.404v4.29a.399.399 0 0 1-.403.403h-2.473a.399.399 0 0 1-.404-.404v-1.043a.345.345 0 0 0-.353-.353h-2.019a.345.345 0 0 0-.353.353v3.146c0 .202.151.353.353.353h3.802c.236 0 .404.185.404.404v2.473a.399.399 0 0 1-.404.404h-3.802a.345.345 0 0 0-.353.353v3.415c0 .202.151.353.353.353h.774c.236 0 .404.185.404.404v2.473a.399.399 0 0 1-.404.403h-5.534a.399.399 0 0 1-.404-.403h-.017Z" fill="currentColor"/></g><defs><clipPath id="a"><path fill="currentColor" d="M0 .5h46.143v34H0z"/></clipPath></defs></svg>